<svg version="1" xmlns="http://www.w3.org/2000/svg" width="240" height="240" viewBox="0 0 180.000000 180.000000"><path d="M12.5 1c.3.5 1.6 1.5 2.8 2.1 2.2 1.2 2.2 1.2.3-1-1.9-2.1-4.3-3-3.1-1.1zM89 .9c0 .5-1 1.2-2.2 1.4-2.3.4-2.3.4-.1.6 1.2 0 2.4.9 2.6 1.8.3 1 .5.3.6-1.5 0-1.7-.1-3.2-.4-3.2-.3 0-.5.4-.5.9zm6.1.5c-.9 1.1-.7 1.5.9 1.9 1.1.3 2.3.1 2.6-.4.3-.5 1.5-.9 2.7-1 2-.1 2-.2-.3-.9-3.7-1.2-4.6-1.1-5.9.4zm9.6-.7c-.4.3-.7 1.1-.7 1.7 0 .7.3.7.8 0 .4-.7 1.6-1.4 2.7-1.7 1.9-.5 1.9-.5-.1-.6-1.1 0-2.4.2-2.7.6zm23.3.5c0 .9-.8 2.2-1.7 2.7-1 .6-1.3 1-.8 1.1.6 0 1.7-.4 2.5-1 1.9-1.2 3.7.4 4.5 4.1.7 3.1-1 6.4-2.7 5.3-.5-.3-.5-1.1.2-1.9.8-.9.3-1.4-2.1-1.9-6.8-1.3-7.7.1-3.3 5.3 1.4 1.7 2.8 4.6 3.1 6.6.4 2.6 1.1 3.5 2.5 3.5 1.1 0 1.6.4 1.3 1-1 1.6 1.6 1.1 6-1 2.2-1.1 3.2-1.8 2.2-1.5-6.8 1.9-6.7 1.9-6.7-1.7 0-1.9 1.1-4.9 2.5-7 1.4-2 2.5-4.1 2.5-4.7 0-2 2.2-2.3 3.5-.5.8 1.1 1.5 1.4 1.5.8 0-.5-.5-1.5-1.2-2.2-.9-.9-.8-1.2.4-1.2.8 0 2.1-.7 2.8-1.5 1.1-1.3 1-1.4-.6-.8-1 .3-3.4 1.5-5.2 2.5-4.3 2.4-5.1 2.3-6.2-.8-.8-2.1-.7-2.9.7-4 1.6-1.3 1.5-1.4-1.1-.8-1.9.5-3.1.2-3.7-.7-.7-1.1-.9-1.1-.9.3zm26-.2c0 .5.5 1 1.1 1 .5 0 .7-.5.4-1-.3-.6-.8-1-1.1-1-.2 0-.4.4-.4 1z"/><path d="M167.5 1.1c-.4.6-1.4.8-2.2.5-.8-.3-1.1-.2-.8.4.7 1.1-5.2 4.3-6.6 3.5-.5-.4-.8-.1-.7.6.3 1.3-.9 1.8-8.9 3.9-6 1.5-7.6 3.5-7 8.3.3 2.4 1.3 4.5 2.6 5.4 1.2.8 1.8 1.9 1.5 2.5-.4.7-.2.8.5.4.6-.4.9-1.1.6-1.6-.3-.4.3-.6 1.2-.4 4.2 1 8.9.9 10.1-.3 2.1-2 0-4.5-4.1-4.8-2-.1-3.4.2-3.1.6.3.5-.2.6-.9.3-1.6-.6-2.9-4.2-2.1-5.6.3-.4 1.9-.8 3.6-.8 2.1 0 3.1.6 3.5 1.9.3 1.2 1.1 1.7 1.9 1.4.8-.3 2.2.1 3.2.8 1.4 1.1 1.5 1.1.5-.1-1-1.1-1-1.7 0-2.8 1-1.3.9-1.4-1-.3-2.5 1.3-2.8.9-1.3-1.9.8-1.4.6-2.1-.6-2.8-1.2-.7-.1-1.8 5.5-5.2 3.9-2.3 7.1-4.4 7.1-4.6 0-.9-1.9-.3-2.5.7zm-17 .9c-.3.5-.1 1 .4 1 .6 0 1.1-.5 1.1-1 0-.6-.2-1-.4-1-.3 0-.8.4-1.1 1zm24.9 1.3c.4 1.3-.4 2.3-2.9 3.8-4 2.4-4.4 2.9-1.5 2.2 1.1-.3 2 0 2 .5 0 .6 1 1.7 2.3 2.3l2.2 1.2-2.3-2.5-2.3-2.5 3.3-2.7c1.8-1.5 2.7-2.4 1.9-2-.7.3-1.8 0-2.3-.7-.8-1.1-.9-1-.4.4zM5.3 5.5C6.8 6.9 8.5 8 9.1 8c1.4 0-2.4-3.5-4.7-4.3-1.3-.5-1.1 0 .9 1.8zM120.5 5c-.4.6.3 1 1.4 1 2.5 0 2.7-.6.6-1.3-.8-.4-1.7-.2-2 .3zM148 5c0 .5.5 1 1.1 1 .5 0 .7-.5.4-1-.3-.6-.8-1-1.1-1-.2 0-.4.4-.4 1zM89.1 8.6c0 1.1.3 1.4.6.6.3-.7.2-1.6-.1-1.9-.3-.4-.6.2-.5 1.3zm15.5-.7c-.4.6-1.5 1.1-2.4 1.1-1.5 0-1.7 1.1-1.6 8 .1 4.4.4 8 .8 8h2.7c1.3 0 2-.6 1.8-1.8-.1-.9-.1-2.8 0-4.1l.1-2.4 2.5 2.3c1.4 1.3 2.3 2.6 2 2.8-.8.9 2.9 3.1 5.3 3.2 2 0 2.2-.5 2.4-4.8.3-10.3-.4-12.7-3.2-11.2-1.3.7-2 2.1-2 4.2 0 2.6-.2 2.9-1.5 1.8-.8-.7-1.5-1.9-1.5-2.6 0-.8-.5-1.3-1.2-1.2-.6.2-1.7-.8-2.4-2-.7-1.5-1.4-2-1.8-1.3zM31.7 9.7c-1.5.2-2.5.9-2.1 1.4.3.6-.2 1.9-1.2 3-.9 1-1.3 1.9-.8 1.9s.3.4-.5.9c-1.2.8-.8 1.5 1.9 3.8 4.7 4 5.4 4.3 9.7 4.5 5.7.2 8.3-1.6 8.3-5.6 0-2.8-.4-3.5-2.6-4-2.4-.6-2.5-.8-1-1.9 3-2.2 1-4.2-4.2-4.3-2.6-.1-5.9.1-7.5.3zm8.6 4c.4.3-.2 1.3-1.4 2.1-2.5 1.7-2 3.4 1.2 4.3 2 .6 1.8.7-1.3.8-2.7.1-4-.4-4.8-1.8-1.3-2.6-.3-4.9 2.3-5.4 1.2-.2 2.5-.5 2.8-.6.3 0 .9.2 1.2.6zm10.5-4c-.2.5-.2 4.1 0 8.1l.4 7.4 6.6-.6c10.1-.8 11.2-1 11.2-1.9 0-.4-.3-.7-.8-.7-.4 0-.6-1.8-.4-4 .3-3.2-.1-4.3-2.3-6.5C63.2 9.4 61.7 9 56.9 9c-3.2 0-5.9.3-6.1.7zm12 7.2c.4 2.6-1.2 4.1-4.5 4.1-2 0-2.3-.5-2.3-3.6 0-3.4.1-3.5 3.3-3.2 2.5.2 3.3.8 3.5 2.7zm11.7-6.7c-1.1.6-2.4 1.8-2.9 2.7-.9 1.4-1.1 1.2-1.8-.9-.6-2-.7-1.8-.3.9.3 1.8.5 4.4.5 5.7 0 2.9 2.4 5.3 6.1 6.1 1.6.3 2.9 1.1 2.9 1.7 0 .7.3.7.8-.1.4-.7 2.8-1.4 5.2-1.5l4.5-.3-.4-4.3c-.2-2.9-.8-4.2-1.8-4.2-1.1 0-1.4-.7-.9-2.5.5-2.1.2-2.7-1.9-3.5-3.4-1.3-7.5-1.2-10 .2zm8.9 3.4c2.2.9 1 2.4-2 2.4-3.3 0-3.5 3.9-.1 4.1 1.8.1 1.8.2.4.6-3.6.9-6.7-.6-6.7-3.2 0-3.5 4.2-5.5 8.4-3.9z"/><path d="M164.8 11.6c-1.6.8-2.8 1.6-2.8 1.8 0 .9 4-.7 5.1-2 1.4-1.7 1.1-1.7-2.3.2zm-115.7 3c0 1.1.3 1.4.6.6.3-.7.2-1.6-.1-1.9-.3-.4-.6.2-.5 1.3zM170 17.1c0 .5.5.7 1 .4.6-.3 1-.8 1-1.1 0-.2-.4-.4-1-.4-.5 0-1 .5-1 1.1zm-6.5 1.9c-1.6 1.7-1.6 2-.3 1.5.9-.4 1.9-1.3 2.2-2.1.7-1.9.2-1.8-1.9.6zm-24.3 1c0 1.4.2 1.9.5 1.2.2-.6.2-1.8 0-2.5-.3-.6-.5-.1-.5 1.3zm38.8-.5c-.7.9-1.1 1.7-.9 2 .3.2 1-.5 1.7-1.5 1.4-2.4 1-2.6-.8-.5zM123.5 21c-.3.5-.2 1 .4 1 .5 0 1.3-.5 1.6-1 .3-.6.2-1-.4-1-.5 0-1.3.4-1.6 1zm48.4.7c-1.3 1.6-1.2 1.7.4.4.9-.7 1.7-1.5 1.7-1.7 0-.8-.8-.3-2.1 1.3zm-2.9 3.1c-1.4.6-1.4.9.1 2.3 1.6 1.6 1.7 1.5 1.5-.7 0-1.3-.1-2.4-.1-2.3 0 0-.7.3-1.5.7zM1 28c0 .5.5 1 1 1 .6 0 1-.5 1-1 0-.6-.4-1-1-1-.5 0-1 .4-1 1zm123.5 0c-.3.5-.1 1 .4 1 .6 0 1.1-.5 1.1-1 0-.6-.2-1-.4-1-.3 0-.8.4-1.1 1zm3.5-.1c0 .6.4 1.2.8 1.5.5.3.9-.1.9-.9s-.4-1.5-.9-1.5c-.4 0-.8.4-.8.9zm22.1 0c-.8.5-.9 1.1-.3 1.5.5.3 1.2-.1 1.6-.9.6-1.7.6-1.8-1.3-.6zm8.6.2c.7.7 1.5 1 1.8.7.3-.3-.2-.9-1.2-1.2-1.4-.6-1.5-.5-.6.5zM59 29c0 .6.7 1 1.5 1s1.5-.2 1.5-.4-.7-.6-1.5-1c-.8-.3-1.5-.1-1.5.4zm79 0c0 .5.5 1 1.1 1 .5 0 .7-.5.4-1-.3-.6-.8-1-1.1-1-.2 0-.4.4-.4 1zm37.9.7c-1.3 1.6-1.2 1.7.4.4.9-.7 1.7-1.5 1.7-1.7 0-.8-.8-.3-2.1 1.3zm-62.9.2c-3.1.4-3.9.8-2.5 1.2 1.1.3 4 0 6.5-.7 4.8-1.3 3.3-1.5-4-.5zm-44.6 2.2c-.2.4-3.5.6-7.4.4l-7-.3 1.8 2.7c5.3 8 10.2 17.3 9.7 18.1-.3.4.2 1 1 1.4.8.3 1.5 1.2 1.5 2.1 0 .8.4 1.5.8 1.5.5 0 1.9 2.1 3.2 4.7 1.2 2.7 3.3 6.2 4.6 8 1.3 1.7 2.4 3.4 2.4 3.7 0 .3 2.2 4.3 4.8 8.9l4.8 8.3-2.3 4c-1.2 2.1-3.5 6.3-5 9.3-1.6 2.9-3.8 6.4-5 7.7-1.2 1.3-2 2.4-1.7 2.4.3 0-.5 1.8-1.7 4-1.3 2.2-2.6 4-3.1 4-.4 0-.8.8-.8 1.8 0 1.1-.8 2.8-1.8 3.9-.9 1.1-3 4.8-4.6 8.2-1.6 3.3-3.6 6.1-4.3 6.1-.8 0-1.1.4-.8 1 .3.5-.1 2.1-1 3.4-2.2 3.4-1.1 5 3.1 4.3 2.9-.5 3.5-.3 4 1.8.8 3.1.2 6-1.4 6.1-.6.1-1.6.2-2.2.3-.5 0-1 1-1 2.1 0 2.2-.7 2.5-2.9 1.1-.8-.5-1.1-1.6-.8-2.5.4-1-.2-2.2-1.8-3.2-2.8-1.8-4.2-1.2-5.5 2.2-1.1 2.7-3.1 2.8-4.2.2-1-2.5-3.5-2.2-6.4.7-2.9 2.9-4 3.1-4.8 1-.3-.8-1-1.5-1.5-1.5-1.4 0-4.1 5.3-4.1 7.9 0 1.4-.5 1.9-1.5 1.5-.8-.4-1.5-1.4-1.5-2.3 0-1-.7-2.6-1.5-3.7-1.5-1.9-1.6-1.9-3.1.4-1.7 2.2-4.4 3-4.4 1.2 0-.6-.7-1-1.5-1s-1.5-.5-1.5-1c0-1.1-3.3-1.3-6.7-.4-2.2.6-2.3 1.2-2.3 9v8.4h177.1l-.3-10.2-.3-10.2-3.2-.7c-3-.6-3.3-.4-3.3 1.7 0 1.3-.9 2.8-2.1 3.4-1.7.9-2.3.8-3.5-.7-1.5-2-1.8-4.3-.6-4.3.5 0 1.6-.6 2.6-1.3 1.6-1.2 1.6-1.4.2-2.6-1.4-1.2-1.6-1.2-1 .2.4 1.1-.2 2-2 2.8-3 1.4-3.1 1.7-1.1 4.3.8 1.1 1.5 2.4 1.5 3 0 .6-.7 0-1.6-1.2-.8-1.2-2.2-2.2-3-2.2-.8 0-1.4-.3-1.5-.8 0-.4-.2-2.4-.4-4.4-.3-2.5.1-4 1-4.6 1.2-.6 1.1-1-.6-2-1.6-1-1.9-1-1.4-.1.5.7 0 1.8-1.1 2.6-1.3 1-1.7 2.4-1.5 5.3.2 3.7-1 5.3-2.4 3-.9-1.5-4.6-1.2-6.6.6-1.1.9-1.9 1.2-2.3.5-.4-.5.6-1.7 2.1-2.6l2.8-1.5-2.7.6c-2.3.5-2.8.3-2.8-1.2 0-1.6-.6-1.9-4.5-1.6-4.1.4-4.5.2-4.6-1.9-.1-1.7-.3-1.9-.6-.7-.2 1-1.1 1.8-1.9 1.8-.8 0-1.4.5-1.4 1.1 0 .5.5.7 1 .4.6-.3 1-.2 1 .3 0 .9-6.5 3.2-9.1 3.2-.8 0-2.7.7-4.2 1.5-1.6.8-4.6 1.4-6.6 1.3-4.6-.1-6.1.7-6.1 3.3 0 1-.5 1.9-1.1 1.9-.7 0-1-1.2-.7-3 .3-1.6.1-3-.3-3s-1.3-1.6-1.9-3.5c-1-3-1.4-3.3-3-2.5-1 .6-3 1-4.4 1-2.2 0-2.6.4-2.6 3 0 2.3-.5 3-1.9 3-3.3 0-5.1-1.1-5.1-3.1 0-1.6-.4-1.8-1.7-1.1-1 .5-2.7.6-3.8.2-1.1-.4-3.7-.5-5.8-.2l-3.7.5.2-3.6c.2-2.8.8-3.7 2.5-4.2 1.4-.3 3.2-2.3 4.4-4.8 1.2-2.3 4.1-7.4 6.3-11.2 2.3-3.9 6.4-10.7 9.1-15.3l4.9-8.3 2.7 5.3c1.5 2.9 4 6.8 5.6 8.7 2.6 3 2.9 3.1 3 1.2.2-2.4 6.5-13.2 8.8-15.1.8-.7 1.5-2 1.5-2.9 0-.9 1.6-4.1 3.5-7.1 4.4-6.9 5.3-11.3 3.1-15.4-.9-1.7-1.6-3.5-1.6-3.9.1-.4-.9-1.6-2-2.5-1.2-.9-2.2-2.7-2.3-4-.1-1.2-.4-2.2-.8-2.2-1.4 0-12.1-19.4-11.2-20.4.3-.3 0-.6-.7-.6s-1.1-.3-.7-.6c.3-.3-1.1-2.8-3.2-5.5-2-2.7-4.8-7.2-6.2-9.9-2.4-4.9-2.4-5-7.4-5.1-2.7 0-9-.1-13.8-.2-4.9-.1-9.1.1-9.3.4zm32.4-.4c.7.3 1.6.2 1.9-.1.4-.3-.2-.6-1.3-.5-1.1 0-1.4.3-.6.6zm3.5.9c-.3.8 0 2.1.7 2.7 1 1 1.2.8.6-.7-.4-1.2-.1-2.3.6-2.8 1.1-.6 1.1-.8 0-.8-.7 0-1.5.7-1.9 1.6zm52.6.4c-1.6 1.7-1.5 4 .2 4 .6 0 .7-.5.4-1-.4-.6-.1-1.8.6-2.6 1.7-2 .7-2.4-1.2-.4zm-34.2 2.4c-.4 1-.1 1.3.8.9.8-.3 1.2-.9.9-1.4-.7-1.2-1.1-1.1-1.7.5zM28 36.5c-.7.8-.8 1.5-.2 1.5.5 0 1.5-.7 2.2-1.5.7-.8.8-1.5.2-1.5-.5 0-1.5.7-2.2 1.5zm136.5-.5c-.3.5-.1 1 .4 1 .6 0 1.1-.5 1.1-1 0-.6-.2-1-.4-1-.3 0-.8.4-1.1 1zM38 37c0 .5.5 1 1 1 .6 0 1-.5 1-1 0-.6-.4-1-1-1-.5 0-1 .4-1 1zm134.6-.2c-.4.7-.4 1.2 0 1.2s-.1.9-1.1 2-1.3 2-.7 2c1.4 0 3.5-3.7 2.9-5.3-.2-.8-.5-.8-1.1.1zM161.5 40c.3.5 1.1 1 1.6 1 .6 0 .7-.5.4-1-.3-.6-1.1-1-1.6-1-.6 0-.7.4-.4 1zm15.3 1l2.4 2-2.1 2.6c-2.2 2.7-2.7 4.4-1.3 4.4.7-.1 4.2-6.5 4.2-7.9 0-.4-1.2-1.3-2.7-2l-2.8-1.1 2.3 2zM141 42c0 .5.5 1 1.1 1 .5 0 .7-.5.4-1-.3-.6-.8-1-1.1-1-.2 0-.4.4-.4 1zm27.7 3.4c-.4 1-.1 1.3.8.9.8-.3 1.2-.9.9-1.4-.7-1.2-1.1-1.1-1.7.5zM31.5 48c.3.5.8 1 1.1 1 .2 0 .4-.5.4-1 0-.6-.5-1-1.1-1-.5 0-.7.4-.4 1zm128.5-.1c0 .5.7 1.2 1.6 1.5 1.4.5 1.5.4.4-.9-1.4-1.7-2-1.9-2-.6zm5 1.6c-.8.9-.8 1.5-.2 1.5 1.2 0 2.6-1.9 1.9-2.6-.2-.2-1 .2-1.7 1.1zm7.7 3.5c-1.9 2.2-2.1 3-.9 3 .5 0 1.4-1.1 2-2.5 1.4-3 1.2-3.1-1.1-.5zM155 54.1c0 .8-1.4 3.1-3.1 5.2-1.7 2-2.7 3.7-2.2 3.7.4 0 1.7-1.2 2.8-2.7 1.1-1.4 2.6-3.3 3.4-4 1-1.1 1.1-1.7.2-2.6-.8-.8-1.1-.7-1.1.4zm13.2.9c-1.8 2.9-1.5 3.8.4 1.2.9-1.3 1.4-2.5 1.2-2.7-.2-.2-.9.5-1.6 1.5zM158 55c0 .5.5 1 1 1 .6 0 1-.5 1-1 0-.6-.4-1-1-1-.5 0-1 .4-1 1zm-31 5.4c0 .2.7.9 1.5 1.6.9.7 1.5.8 1.5.2 0-.5-.7-1.2-1.5-1.6-.8-.3-1.5-.4-1.5-.2zm29.5 3.6c.3.5.8 1 1.1 1 .2 0 .4-.5.4-1 0-.6-.5-1-1.1-1-.5 0-.7.4-.4 1zM122 66.4c0 .2.8 1 1.8 1.7 1.5 1.3 1.6 1.2.3-.4s-2.1-2.1-2.1-1.3zm16.1 2.2c0 1.1.3 1.4.6.6.3-.7.2-1.6-.1-1.9-.3-.4-.6.2-.5 1.3zm30.2 1.6c2.1 1.8 2.4 2.7 1.5 3.6-.6.6-.9 1.4-.6 1.8.4.3 1.1-.3 1.7-1.4.9-1.8.6-2.4-2.2-4.2l-3.2-2.2 2.8 2.4z"/><path d="M53.7 69.7c-.4.3-.7 1.1-.7 1.7 0 .6.5.5 1.2-.2.6-.6.9-1.4.7-1.7-.3-.3-.9-.2-1.2.2zm73 1.6c-.3.8.1 1.4.9 1.4s1.4-.6 1.4-1.4c0-.7-.4-1.3-.9-1.3s-1.1.6-1.4 1.3zm47.4 1.3c0 1.1.3 1.4.6.6.3-.7.2-1.6-.1-1.9-.3-.4-.6.2-.5 1.3zm-13.6 1.3c-.3.5-.1 1.2.5 1.6.5.3 1-.1 1-.9 0-1.8-.6-2.1-1.5-.7zM7.5 75c.3.5.8 1 1.1 1 .2 0 .4-.5.4-1 0-.6-.5-1-1.1-1-.5 0-.7.4-.4 1zm144.3 4c1.9 1.6 2.1 2.3 1.2 4-.6 1.1-.8 2-.6 2 .3 0 1-.9 1.6-2.1.9-1.6.8-2.5-.6-4-.9-1-2.2-1.9-2.8-1.9-.6.1-.1.9 1.2 2zm15.2-1c-.9.6-1 1-.3 1 .6 0 1.5-.5 1.8-1 .8-1.2.4-1.2-1.5 0zm-29 1.5c0 .2 1 1 2.3 1.6 2 1.1 2.1 1.1.8-.4-1.3-1.6-3.1-2.3-3.1-1.2zm27.6 3.2c-.6 1.4-.5 1.5.5.6.7-.7 1-1.5.7-1.8-.3-.3-.9.2-1.2 1.2zm-5 3c-.6 1.4-.5 1.5.5.6.7-.7 1-1.5.7-1.8-.3-.3-.9.2-1.2 1.2zM22.3 86c-1.3.5-2.3 1.2-2.3 1.5 0 .9 1.6.5 3.6-1 2.2-1.6 1.9-1.8-1.3-.5zm140.7-.6c0 .2.7.7 1.6 1 .8.3 1.2.2.9-.4-.6-1-2.5-1.4-2.5-.6zm4.1 2.1c.9.8 7.9 3.5 7.9 3 0-.2-1.6-1.2-3.6-2-3.7-1.5-5.1-1.9-4.3-1zM50 88.9c0 .5.7 1.2 1.6 1.5 1.4.5 1.5.4.4-.9-1.4-1.7-2-1.9-2-.6zm104 .6c.7.8 1.7 1.5 2.2 1.5.6 0 .5-.7-.2-1.5s-1.7-1.5-2.2-1.5c-.6 0-.5.7.2 1.5zm-98 1.6c0 .5.5.7 1 .4.6-.3 1-.8 1-1.1 0-.2-.4-.4-1-.4-.5 0-1 .5-1 1.1zm89.5-.1c.3.5.8 1 1.1 1 .2 0 .4-.5.4-1 0-.6-.5-1-1.1-1-.5 0-.7.4-.4 1zm12.5-.5c0 .5.5 1.7 1 2.5s1 1 1 .5c0-.6-.5-1.7-1-2.5s-1-1.1-1-.5zm-6 3.3c0 1.2 1.9 2.7 4.5 3.5l2 .7-2-1.5c-1.1-.8-2.6-1.9-3.2-2.5-.7-.6-1.3-.7-1.3-.2zm21.4 1.6c-.3 1.4-.2 3.2.4 4.2.7 1.3.9.7.9-2.5 0-4.7-.4-5.2-1.3-1.7zm-35.3-.9c0 1.3 2.8 5 3.3 4.4.3-.2-.4-1.5-1.4-2.9-1.1-1.4-2-2.1-1.9-1.5zM28.3 97.2c-1.4 1.9-2.4 4.8-1.5 4.8.8 0 3.4-5.2 2.8-5.7-.2-.2-.8.2-1.3.9zM152 110c-.8.5-1.2 1.2-.9 1.5.4.3 1.2-.1 1.9-1 1.4-1.7 1.1-1.9-1-.5zm8.6 3.8c-.3.4.4.9 1.5.9 2.3.2 2.5-.3.4-1-.8-.4-1.6-.3-1.9.1zm16.4-.4c0 .2.8 1 1.8 1.7 1.5 1.3 1.6 1.2.3-.4s-2.1-2.1-2.1-1.3zm-114.3 2.3c-.4.3-.7 1.1-.7 1.7 0 .6.5.5 1.2-.2.6-.6.9-1.4.7-1.7-.3-.3-.9-.2-1.2.2zm93.2 2c-1.3 1.6-1.2 1.7.4.4 1.6-1.3 2.1-2.1 1.3-2.1-.2 0-1 .8-1.7 1.7zm20.6 10.3c1 1.1 2 2 2.3 2 .3 0-.3-.9-1.3-2s-2-2-2.3-2c-.3 0 .3.9 1.3 2zm-41.5.6c0 .8.5 1.2 1 .9.6-.4.8-1.1.5-1.6-.9-1.4-1.5-1.1-1.5.7zm11.5 3.4c-.3.5-.2 1 .4 1 .5 0 1.3-.5 1.6-1 .3-.6.2-1-.4-1-.5 0-1.3.4-1.6 1zM9 134.1c0 .5.5.7 1 .4.6-.3 1-.8 1-1.1 0-.2-.4-.4-1-.4-.5 0-1 .5-1 1.1zm40.5 0c-.4.6-.5 1.2-.2 1.5.2.3.7-.2 1-1.1.7-1.7.1-2-.8-.4zm126.9.4c3.6 1.9 4.2 1.9 2.6 0-.7-.8-2.2-1.5-3.4-1.5-1.8 0-1.7.2.8 1.5zm-7.9 3.5c-.3.6.1.7.9.4 1.8-.7 2.1-1.4.7-1.4-.6 0-1.3.4-1.6 1zM5.4 141.2l-1.9 2.3 2.3-1.9c2.1-1.8 2.7-2.6 1.9-2.6-.2 0-1.2 1-2.3 2.2zm-5.4-.4c0 1.2 1.9 2.6 2.6 1.9.2-.2-.2-1-1.1-1.7-.9-.8-1.5-.8-1.5-.2zm147 1.2c.6 1.1 1.5 2 2 2 .6 0 .5-.9-.2-2s-1.6-2-2.1-2c-.4 0-.3.9.3 2zm10.3 2.5c-.8 2.3 0 2.5 2.1.4 1.8-1.7 1.8-1.9.2-1.9-.9 0-1.9.7-2.3 1.5zm-43.2 2.1c0 1.1.3 1.4.6.6.3-.7.2-1.6-.1-1.9-.3-.4-.6.2-.5 1.3zm35.9.4c0 .6.7 1 1.5 1s1.5-.2 1.5-.4-.7-.6-1.5-1c-.8-.3-1.5-.1-1.5.4zm24.2 2.4c1.9 2.8 2.5 3.2 4 2.2 1-.6 1.8-1.5 1.8-2 0-.4-.7-.2-1.6.5-1.4 1.1-1.8 1-3-.6-.8-1-1.4-2.2-1.4-2.7 0-.4-.5-.8-1-.8-.6 0 0 1.5 1.2 3.4zM5.5 155c.3.5.8 1 1.1 1 .2 0 .4-.5.4-1 0-.6-.5-1-1.1-1-.5 0-.7.4-.4 1zm70.5-.6c0 .2.9.6 2 .9 1.1.3 2 .1 2-.4s-.9-.9-2-.9-2 .2-2 .4zm52 2.6c-.8.5-1 1-.5 1 .6 0 1.7-.5 2.5-1s1.1-1 .5-1c-.5 0-1.7.5-2.5 1zm-17.3 2.9c-.4 1.7-.3 2.1.5 1.3.5-.5.8-1.6.6-2.3-.3-.8-.7-.3-1.1 1z"/></svg>